<svg width="16" height="16" viewBox="0 0 16 16" fill="none" xmlns="http://www.w3.org/2000/svg">
<path d="M13.6413 5.16793L10.8317 2.35811C10.6016 2.12874 10.29 2 9.96522 2C9.64037 2 9.32886 2.12873 9.09878 2.35811L8.73977 2.71713C8.51021 2.94701 8.38118 3.25864 8.38118 3.58361C8.38118 3.90847 8.51022 4.2201 8.73977 4.44998L8.75844 4.46865L5.84083 6.41383C5.57443 6.5916 5.27585 6.7154 4.96187 6.7783L3.61558 7.04757C3.32406 7.10562 3.06373 7.2677 2.88291 7.50362C2.70207 7.73945 2.61315 8.03303 2.63273 8.32958C2.65222 8.62603 2.7789 8.90546 2.98907 9.11554L4.50346 10.63L2.17946 12.9541C2.02467 13.1089 1.96426 13.3345 2.02088 13.5459C2.0776 13.7573 2.24274 13.9225 2.45415 13.9791C2.66555 14.0358 2.89112 13.9753 3.04589 13.8205L5.36989 11.4964L6.88429 13.0109C7.11385 13.2408 7.42527 13.37 7.75012 13.37C7.87075 13.3699 7.99066 13.3521 8.10616 13.3174C8.31839 13.2531 8.50918 13.1325 8.6582 12.9683C8.80724 12.8041 8.90879 12.6025 8.95217 12.385L9.22143 11.0387C9.2841 10.7245 9.40791 10.4255 9.58587 10.1591L11.531 7.24131L11.5496 7.25998H11.5495C11.7795 7.48945 12.0911 7.61838 12.416 7.61838C12.7408 7.61838 13.0524 7.48944 13.2824 7.25998L13.6414 6.90095C13.871 6.67108 14 6.35945 14 6.03448C14 5.70951 13.871 5.39788 13.6414 5.168L13.6413 5.16793Z" fill="white"/>
</svg>
