<svg width="25" height="24" viewBox="0 0 25 24" fill="none" xmlns="http://www.w3.org/2000/svg">
<path fill-rule="evenodd" clip-rule="evenodd" d="M4.14154 10.3999L4.14302 8.8C4.14302 7.91995 4.93837 7.19995 5.92145 7.19995H8.95987V5.59789C8.95987 4.7153 9.67297 4 10.5669 4H13.7871C14.6747 4 15.3941 4.71664 15.3941 5.59789V7.19995H18.4325C19.4156 7.19995 20.2198 7.91995 20.2198 8.8V10.3999H4.14154ZM4.14006 12H20.2198V18.4001C20.2198 19.28 19.4155 20 18.4324 20H5.92138C4.93831 20 4.13406 19.28 4.13406 18.4001L4.14006 12ZM10.5683 5.59984V7.19989H13.7855V5.59984H10.5683ZM10.5683 12V13.6H13.7855V12H10.5683Z" fill="white"/>
</svg>
