<svg width="17" height="18" viewBox="0 0 17 18" fill="none" xmlns="http://www.w3.org/2000/svg">
<path d="M15.5 7.25C15.5 12.1111 8.25 16.2778 8.25 16.2778C8.25 16.2778 1 12.1111 1 7.25C1 5.5924 1.76384 4.00268 3.12348 2.83058C4.48311 1.65848 6.32718 1 8.25 1C10.1728 1 12.0169 1.65848 13.3765 2.83058C14.7362 4.00268 15.5 5.5924 15.5 7.25Z" stroke="white" stroke-width="2" stroke-linecap="round" stroke-linejoin="round"/>
<path d="M8.25033 9.33366C9.9532 9.33366 11.3337 8.40092 11.3337 7.25033C11.3337 6.09973 9.9532 5.16699 8.25033 5.16699C6.54745 5.16699 5.16699 6.09973 5.16699 7.25033C5.16699 8.40092 6.54745 9.33366 8.25033 9.33366Z" stroke="white" stroke-width="2" stroke-linecap="round" stroke-linejoin="round"/>
</svg>
